<svg xmlns="http://www.w3.org/2000/svg" viewBox="0 0 800 500" role="img" aria-label="voxel_world placeholder">
  <rect width="800" height="500" fill="#1a1c24"/>
  <g stroke="#05060a" stroke-width="2">
    <polygon points="400,120 500,175 400,230 300,175" fill="#4a5a8a"/>
    <polygon points="300,175 400,230 400,340 300,285" fill="#2b2f3c"/>
    <polygon points="400,230 500,175 500,285 400,340" fill="#39466b"/>
    <polygon points="250,250 320,290 250,330 180,290" fill="#5a4632"/>
    <polygon points="180,290 250,330 250,400 180,360" fill="#3f3123"/>
    <polygon points="250,330 320,290 320,360 250,400" fill="#4d3b29"/>
    <polygon points="560,250 630,290 560,330 490,290" fill="#0e7a6f"/>
    <polygon points="490,290 560,330 560,400 490,360" fill="#0a5f56"/>
    <polygon points="560,330 630,290 630,360 560,400" fill="#0c6b61"/>
  </g>
  <text x="400" y="470" font-family="monospace" font-size="14" fill="#aabbcc" text-anchor="middle" opacity="0.7">voxel_world — placeholder</text>
</svg>
